<svg width="99" height="82" viewBox="0 0 99 82" fill="none" xmlns="http://www.w3.org/2000/svg">
<path d="M30.4334 68.4912C29.6687 68.4912 29.2863 67.4716 29.2863 65.4239V14.8585C29.2863 13.8814 29.0909 13.4225 28.6916 13.482C26.2784 14.0938 25.0634 14.3997 25.0294 14.3997C24.3581 14.4592 24.0267 13.7879 24.0267 12.3859V7.99299C24.0267 6.77792 24.3921 6.08967 25.1228 5.93673L37.2055 2.82684C37.299 2.80135 37.4349 2.78436 37.6134 2.78436C38.2846 2.78436 38.616 3.4981 38.616 4.93409V65.4323C38.616 67.4801 38.2166 68.4997 37.4264 68.4997L30.4334 68.4912V68.4912ZM61.7277 68.5847C60.5041 68.5847 59.4505 68.4997 58.5498 68.3298C57.6492 68.1599 56.7145 67.7775 55.7373 67.1827C54.7602 66.5879 53.9615 65.7722 53.3327 64.7356C52.7039 63.699 52.1941 62.246 51.8033 60.3852C51.4124 58.5243 51.2085 56.3151 51.2085 53.749V30.2805C51.2085 29.6687 51.0385 29.3628 50.7071 29.3628H47.8692C47.1044 29.3628 46.7221 28.6321 46.7221 27.1706V24.698C46.7221 23.2025 47.1044 22.4548 47.8692 22.4548H50.7071C51.0385 22.4548 51.2085 22.0469 51.2085 21.2227L52.0327 3.42163C52.1261 1.80721 52.517 1 53.2222 1H57.8021C58.5668 1 58.9492 1.80721 58.9492 3.42163V21.2227C58.9492 22.0469 59.1276 22.4548 59.5015 22.4548H65.3389C66.1036 22.4548 66.486 23.2025 66.486 24.698V27.1706C66.486 28.6321 66.1036 29.3628 65.3389 29.3628H59.4845C59.2721 29.3628 59.1276 29.4138 59.0512 29.5243C58.9747 29.6262 58.9407 29.8811 58.9407 30.2805V53.8935C58.9407 55.6609 59.0512 57.1393 59.2806 58.3119C59.51 59.4845 59.8414 60.3512 60.2832 60.895C60.7251 61.4388 61.1669 61.8126 61.6087 61.9911C62.0506 62.178 62.5944 62.263 63.2317 62.263H66.4775C67.3017 62.263 67.7095 62.8323 67.7095 63.9539V66.6984C67.7095 67.9474 67.2677 68.5762 66.384 68.5762L61.7277 68.5847V68.5847ZM79.2909 74.0737C79.9876 74.0737 80.5994 73.5044 81.1177 72.3574C81.636 71.2103 81.8994 69.5874 81.8994 67.4801C81.8994 66.9873 81.5936 65.2964 80.9818 62.3989L72.009 25.1058C71.9495 24.681 71.9155 24.3411 71.9155 24.0947C71.9155 22.9986 72.1449 22.4463 72.6038 22.4463H78.1438C78.5686 22.4463 78.917 22.5907 79.1974 22.8796C79.4778 23.1685 79.6902 23.7548 79.8347 24.6385L85.7825 56.1197C85.9015 56.4851 85.978 56.672 86.012 56.672C86.1309 56.672 86.1989 56.5021 86.1989 56.1707L90.8637 24.7745C90.9827 23.8568 91.1781 23.245 91.433 22.9221C91.6879 22.5992 92.0193 22.4378 92.4187 22.4378H96.2593C96.7776 22.4378 97.041 23.0326 97.041 24.2222C97.041 24.4941 97.007 24.8509 96.9475 25.2758L88.799 67.701C88.1617 71.2103 87.4565 73.8953 86.6917 75.7561C85.927 77.617 85.0773 78.883 84.1256 79.5543C83.1825 80.2255 81.9334 80.5739 80.37 80.6079H79.9112C77.4385 80.6079 75.7647 79.9536 74.881 78.6366C74.6346 78.3647 74.5156 77.6595 74.5156 76.5294C74.5156 74.2692 74.881 73.1391 75.6117 73.1391C75.6712 73.1391 76.2235 73.292 77.2601 73.5979C78.3137 73.9208 78.985 74.0737 79.2909 74.0737V74.0737Z" fill="#6B7280" stroke="#6B7280" stroke-width="2" stroke-miterlimit="10"/>
<path d="M7.4067 68.5762C6.64197 68.5762 6.25961 67.5566 6.25961 65.5088V14.9435C6.25961 13.9664 6.06418 13.5075 5.66482 13.567C3.25169 14.1788 2.03663 14.4847 2.00264 14.4847C1.33138 14.5441 1 13.8729 1 12.4709V8.07796C1 6.8629 1.36537 6.17465 2.09611 6.02171L14.1873 2.90332C14.2807 2.87783 14.4167 2.86084 14.5951 2.86084C15.2664 2.86084 15.5978 3.57458 15.5978 5.01057V65.5088C15.5978 67.5566 15.1984 68.5762 14.4082 68.5762H7.4067V68.5762Z" fill="#6B7280" stroke="#6B7280" stroke-width="2" stroke-miterlimit="10"/>
</svg>
