<svg width="252" height="86" viewBox="0 0 252 86" fill="none" xmlns="http://www.w3.org/2000/svg">
<path fill-rule="evenodd" clip-rule="evenodd" d="M41.3896 2.21093C42.0669 3.08144 42.4123 4.25608 43.1031 6.60535L58.1941 57.9275C52.6145 54.9309 46.5489 52.7698 40.1521 51.6038L30.3263 17.2288C30.1656 16.6663 29.6665 16.2805 29.1 16.2805C28.5319 16.2805 28.032 16.6683 27.8725 17.2327L18.1657 51.5865C11.7392 52.7472 5.64595 54.9123 0.042511 57.9197L15.2075 6.59347C15.9004 4.24824 16.2469 3.07561 16.9243 2.20671C17.5223 1.43962 18.3001 0.843872 19.1836 0.476241C20.1843 0.0598145 21.3688 0.0598145 23.7378 0.0598145H34.5693C36.9414 0.0598145 38.1275 0.0598145 39.1291 0.47711C40.0134 0.845502 40.7917 1.44245 41.3896 2.21093Z" fill="#6B7280"/>
<path fill-rule="evenodd" clip-rule="evenodd" d="M43.1956 60.3699C40.7078 62.5721 35.7423 64.0741 30.0226 64.0741C23.0025 64.0741 17.1186 61.8116 15.5573 58.7687C14.9991 60.5126 14.8739 62.5085 14.8739 63.7835C14.8739 63.7835 14.5062 70.0442 18.7124 74.3987C18.7124 72.1376 20.4829 70.3047 22.6669 70.3047C26.4104 70.3047 26.4062 73.6858 26.4027 76.4289C26.4027 76.5111 26.4026 76.5928 26.4026 76.6738C26.4026 80.8374 28.8606 84.4066 32.3562 85.911C31.8341 84.7993 31.5412 83.5507 31.5412 82.2315C31.5412 78.2604 33.7932 76.7818 36.4104 75.0635C38.4927 73.6962 40.8064 72.1772 42.4009 69.1299C43.2329 67.5398 43.7054 65.7188 43.7054 63.7835C43.7054 62.5934 43.5267 61.4464 43.1956 60.3699Z" fill="#6B7280"/>
<path d="M92.8412 57.1248C99.1535 57.1248 103.888 54.8 105.83 50.8416C105.83 52.7265 105.952 54.6744 106.254 56.1824H116.634C116.148 53.9831 115.905 50.967 115.905 47.0086V37.3322C115.905 28.1584 110.685 23.8229 99.0931 23.8229C88.9569 23.8229 82.1592 28.1584 81.3701 35.2587H92.1736C92.5377 32.1798 95.0259 30.4833 99.0931 30.4833C103.098 30.4833 105.344 32.1798 105.344 35.6986V36.641L94.3588 37.6463C89.0175 38.212 85.9828 39.1543 83.8585 40.6624C81.6129 42.2331 80.4597 44.621 80.4597 47.574C80.4597 53.4804 85.1938 57.1248 92.8412 57.1248ZM96.8472 50.5901C93.3264 50.5901 91.2025 49.145 91.2025 46.8201C91.2025 44.4325 92.9622 43.1757 97.3936 42.6103L105.526 41.7307V43.6156C105.526 47.8255 102.006 50.5901 96.8472 50.5901Z" fill="#6B7280"/>
<path d="M138.523 57.1248C149.084 57.1248 154.486 53.0407 154.486 46.4431C154.486 40.9766 151.451 37.9605 144.107 36.9552L134.943 35.8871C132.333 35.5099 131.24 34.8187 131.24 33.3107C131.24 31.4887 133 30.6718 137.006 30.6718C142.529 30.6718 146.352 31.9913 149.448 34.5676L154.364 29.478C150.966 25.8336 145.078 23.8229 137.795 23.8229C127.538 23.8229 121.833 27.5929 121.833 33.9391C121.833 39.4685 125.352 42.5474 132.635 43.5526L140.891 44.558C144.168 44.9979 145.139 45.6263 145.139 47.2599C145.139 49.145 143.318 50.1504 139.069 50.1504C132.757 50.1504 128.509 48.3909 125.656 45.1236L120.073 49.8989C123.775 54.6744 130.087 57.1248 138.523 57.1248Z" fill="#6B7280"/>
<path d="M163.055 31.8657V45.1237C163.055 52.915 167.303 56.8736 176.407 56.8736C179.2 56.8736 181.384 56.5594 183.448 55.9311V47.7625C182.355 48.014 181.02 48.2653 179.26 48.2653C175.436 48.2653 173.555 46.506 173.555 42.7988V31.8657H183.508V24.7654H173.555V13.2669L163.055 17.2882V24.7654H156.257V31.8657H163.055Z" fill="#6B7280"/>
<path d="M198.583 24.7654H188.993V56.1824H199.493V44.4326C199.493 41.0393 200.222 37.9605 202.225 36.0127C203.803 34.5046 206.049 33.688 209.205 33.688C210.358 33.688 211.268 33.8134 212.3 33.9391V24.0742C211.633 23.9486 211.147 23.9486 210.297 23.9486C204.288 23.9486 200.222 27.5301 198.583 33.3738V24.7654Z" fill="#6B7280"/>
<path d="M233.049 57.1248C244.157 57.1248 251.986 51.03 251.986 40.4111C251.986 29.855 244.157 23.8229 233.049 23.8229C221.882 23.8229 214.052 29.855 214.052 40.4111C214.052 51.03 221.882 57.1248 233.049 57.1248ZM233.049 49.8989C227.951 49.8989 224.734 46.506 224.734 40.4111C224.734 34.3161 227.951 31.0488 233.049 31.0488C238.087 31.0488 241.304 34.3161 241.304 40.4111C241.304 46.506 238.087 49.8989 233.049 49.8989Z" fill="#6B7280"/>
</svg>
