<svg width="168" height="149" viewBox="0 0 168 149" fill="none" xmlns="http://www.w3.org/2000/svg">
<path d="M67.6667 69.0289C76.9417 64.6055 81.7833 57.9121 81.7833 47.4937C81.7833 26.948 66.4417 21.9426 48.7375 21.9426H0V125.079H50.1083C68.8917 125.079 86.5375 116.086 86.5375 95.133C86.5375 82.1828 80.3833 72.6084 67.6667 69.0289V69.0289ZM22.7208 39.549H44.0417C52.2375 39.549 59.6167 41.848 59.6167 51.3351C59.6167 60.0947 53.8708 63.616 45.7625 63.616H22.7208V39.549V39.549ZM47.0167 107.559H22.7208V79.1562H47.4833C57.4875 79.1562 63.8167 83.3178 63.8167 93.8816C63.8167 104.3 56.2625 107.559 47.0167 107.559V107.559ZM151.579 37.5119H109.667V27.3555H151.579V37.5119V37.5119ZM168 88.818C168 66.7299 155.05 48.3086 131.571 48.3086C108.762 48.3086 93.275 65.4203 93.275 87.8285C93.275 111.081 107.946 127.028 131.571 127.028C149.45 127.028 161.029 118.996 166.6 101.914H148.458C146.504 108.287 138.454 111.663 132.212 111.663C120.167 111.663 113.837 104.62 113.837 92.6594H167.825C167.913 91.4371 168 90.1275 168 88.818ZM113.867 79.7383C114.537 69.931 121.071 63.7906 130.929 63.7906C141.254 63.7906 146.446 69.8437 147.321 79.7383H113.867Z" fill="#374151"/>
</svg>
