<svg width="689" height="188" viewBox="0 0 689 188" fill="none" xmlns="http://www.w3.org/2000/svg">
<path d="M310.474 108L369.474 150.5L350.974 153C347.32 152.206 330.903 137.437 303.853 118.5M310.474 108C295.474 96.7106 294.474 62.5 295.474 57.5C291.974 49.5 279.074 40.7 277.474 41.5M310.474 108C303.212 102.235 295.869 96.8578 288.474 91.8438M277.474 41.5C280.14 58.2292 286.074 91.7189 288.474 91.8438M277.474 41.5L275.474 43.5C271.474 37.5 259.574 30.9 257.974 32.5M288.474 91.8438C282.668 87.9084 276.831 84.197 270.974 80.6982M257.974 32.5C259.474 53.5 267.374 80.4568 270.974 80.6982M257.974 32.5L255.974 34.5C251.474 28 238.774 22.1 237.974 24.5M270.974 80.6982C265.985 77.718 260.982 74.8921 255.974 72.2135M237.974 24.5C242.14 40.4757 251.574 72.3843 255.974 72.2135M237.974 24.5L236.474 27.5C231.974 20.5 222.074 17.3 220.474 18.5M255.974 72.2135C249.477 68.7387 242.97 65.5118 236.474 62.5173M220.474 18.5C223.974 33.3448 232.074 62.9311 236.474 62.5173M220.474 18.5L217.974 21C212.974 17.6667 202.674 11.6 201.474 14M236.474 62.5173C231.131 60.0547 225.794 57.7493 220.474 55.5927M201.474 14C199.974 17 216.974 56.1853 220.474 55.5927M201.474 14L199.474 18C192.974 10.5 184.174 9.60002 182.974 10M220.474 55.5927C214.784 53.2863 209.113 51.15 203.474 49.1734M182.974 10C186.974 27.5 197.874 49.3121 203.474 49.1734M182.974 10L180.974 13C177.474 7.00001 161.974 5.8 161.974 7M203.474 49.1734C197.771 47.1745 192.1 45.3388 186.474 43.6556M161.974 7C165.974 23.5 181.674 44.5802 186.474 43.6556M161.974 7L159.974 10.5C150.474 3.50001 143.274 3.90001 142.474 5.50001M186.474 43.6556C180.416 41.8434 174.411 40.2079 168.474 38.7356M142.474 5.50001C149.14 16.8238 163.674 39.3241 168.474 38.7356M142.474 5.50001L140.974 8.00001C133.474 2.50003 123.674 2.50001 122.474 4.50001M168.474 38.7356C161.136 36.9162 153.903 35.3461 146.805 34M122.474 4.50001C128.694 14.5 142.27 34.4 146.805 34M122.474 4.50001L121.974 8.50003C115.474 4.50001 101.374 3.50001 100.974 5.50001M146.805 34C140.238 32.7547 133.786 31.7011 127.474 30.819M100.974 5.50001C108.474 14.2126 124.274 31.4741 127.474 30.819M100.974 5.50001L99.9735 8.50003C97.4735 5.50001 77.7735 2.99998 78.9735 7M127.474 30.819C120.457 29.8385 113.613 29.07 106.974 28.4859M78.9735 7C87.4735 14.086 104.974 28.3036 106.974 28.4859M78.9735 7L80.4735 10.5C75.4735 8.00001 61.2735 7.10003 62.4735 9.50003M106.974 28.4859C99.7135 27.8471 92.6991 27.4287 85.9735 27.1947M62.4735 9.50003C69.6402 15.3734 84.3735 27.135 85.9735 27.1947M62.4735 9.50003L61.4735 12C56.1402 11.5 45.4735 11 45.4735 13C45.4735 13.0791 45.4915 13.1671 45.5264 13.2635M85.9735 27.1947C79.3458 26.9641 72.9987 26.9126 66.9735 27.0054M66.9735 27.0054C63.5841 27.0414 46.5969 16.2182 45.5264 13.2635M66.9735 27.0054C58.8551 27.1305 51.3213 27.5178 44.4735 28.0827M45.5264 13.2635L44.4735 16C39.8069 16 30.4735 16.3 30.4735 17.5M30.4735 17.5C30.4735 19 47.4735 27.82 44.4735 28.0827M30.4735 17.5V21.5C25.3069 21.3316 15.2735 21.5957 16.4735 24M44.4735 28.0827C38.6173 28.5659 33.2628 29.1789 28.4735 29.869M16.4735 24C17.9735 27.0054 26.4735 30.1481 28.4735 29.869M16.4735 24C10.9735 25.6667 0.673519 29.4 3.47352 31C6.97352 33 8.0943 34.0835 10.2839 33.5M28.4735 29.869C20.9225 30.957 14.7765 32.2364 10.2839 33.5M10.2839 33.5C7.21663 34.3627 4.92012 35.2181 3.47352 36C11.0629 34.9843 18.5642 34.2146 25.9735 33.6738M303.853 118.5C286.474 116 252.474 120.5 248.974 120.5C244.721 120.5 233.14 115.167 226.974 110.5M303.853 118.5C297.475 114.035 290.506 109.339 282.974 104.539M226.974 110.5C244.108 107.526 279.296 102.17 282.974 104.539M226.974 110.5L226.474 107.5C217.974 107.5 205.974 101.1 207.974 99.5M282.974 104.539C277.263 100.9 271.228 97.2016 264.882 93.5M207.974 99.5C223.912 96.5 257.608 91.1 264.882 93.5M207.974 99.5L206.474 97C199.974 97.5 191.374 92.7 192.974 91.5M264.882 93.5C259.162 90.1641 253.19 86.8256 246.974 83.5255M192.974 91.5C208.807 87.1836 241.774 79.5458 246.974 83.5255M192.974 91.5V87.5C185.474 89 172.274 84.4 175.474 82M246.974 83.5255C240.899 80.3009 234.592 77.113 228.06 74M175.474 82C186.031 78.8334 211.33 72.8 228.06 74M175.474 82L174.974 79C167.974 80 154.274 75.1 157.474 73.5M228.06 74C221.212 70.7363 214.117 67.555 206.784 64.5M157.474 73.5C166.347 70.1667 188.632 63.7 206.784 64.5M157.474 73.5C150.474 71.6667 136.974 67.5 138.974 65.5M206.784 64.5C199.574 61.4961 192.134 58.6145 184.474 55.8969M138.974 65.5C140.974 63.5 170.14 58.2646 184.474 55.8969M138.974 65.5L136.974 63C130.64 62.8334 118.474 62 120.474 60M184.474 55.8969C176.383 53.0267 168.046 50.3396 159.474 47.885M120.474 60C122.474 58 147.307 51.09 159.474 47.885M120.474 60L118.974 57C113.474 57.1667 102.774 56.9 103.974 54.5M159.474 47.885C152.143 45.7861 144.641 43.8571 136.974 42.1291M103.974 54.5C105.174 52.1 126.474 45.2528 136.974 42.1291M103.974 54.5L101.974 52.5C94.4735 53.1667 79.9735 53.7 81.9735 50.5M136.974 42.1291C128.665 40.2566 120.162 38.62 111.474 37.2586M81.9735 50.5C83.9735 47.3 102.474 40.3391 111.474 37.2586M81.9735 50.5L79.9735 48C70.9735 53.5 57.9735 52.4 57.9735 50M111.474 37.2586C103.462 36.0034 95.2935 34.9821 86.9735 34.2256M57.9735 50C65.3068 44.3171 81.3735 33.2061 86.9735 34.2256M57.9735 50V46.5C51.4735 51.5 38.9735 50 38.9735 48M86.9735 34.2256C78.4625 33.4518 69.7935 32.955 60.9735 32.7683M38.9735 48C43.3068 42.437 53.7735 31.6024 60.9735 32.7683M38.9735 48L36.4735 46C29.4735 47.8334 15.5735 50.7 15.9735 47.5M60.9735 32.7683C55.2041 32.6462 49.3701 32.6567 43.4735 32.8091M15.9735 47.5C16.3735 44.3 34.4735 36.3728 43.4735 32.8091M15.9735 47.5C11.9735 46.6667 4.27351 44.5 5.47351 42.5C6.67351 40.5 19.6402 35.7825 25.9735 33.6738M43.4735 32.8091C37.6995 32.9584 31.8656 33.2437 25.9735 33.6738" stroke="black" stroke-width="5" stroke-linejoin="round"/>
<path d="M378.974 107.722L319.974 150.222L338.474 152.722C342.127 151.928 358.544 137.158 385.594 118.222M378.974 107.722C393.974 96.4323 394.974 62.2217 393.974 57.2217C397.474 49.2217 410.374 40.4217 411.974 41.2217M378.974 107.722C386.235 101.957 393.578 96.5794 400.974 91.5655M411.974 41.2217C409.307 57.9509 403.374 91.4406 400.974 91.5655M411.974 41.2217L413.974 43.2217C417.974 37.2217 429.873 30.6217 431.473 32.2217M400.974 91.5655C406.779 87.6301 412.616 83.9186 418.474 80.4199M431.473 32.2217C429.973 53.2217 422.074 80.1784 418.474 80.4199M431.473 32.2217L433.473 34.2217C437.973 27.7217 450.673 21.8217 451.473 24.2217M418.474 80.4199C423.462 77.4397 428.465 74.6138 433.473 71.9352M451.473 24.2217C447.307 40.1974 437.873 72.106 433.473 71.9352M451.473 24.2217L452.973 27.2217C457.473 20.2217 467.373 17.0217 468.973 18.2217M433.473 71.9352C439.97 68.4604 446.477 65.2334 452.973 62.239M468.973 18.2217C465.473 33.0665 457.373 62.6528 452.973 62.239M468.973 18.2217L471.473 20.7217C476.473 17.3884 486.773 11.3217 487.973 13.7217M452.973 62.239C458.316 59.7764 463.653 57.471 468.973 55.3144M487.973 13.7217C489.473 16.7217 472.473 55.907 468.973 55.3144M487.973 13.7217L489.973 17.7217C496.473 10.2217 505.273 9.3217 506.473 9.7217M468.973 55.3144C474.663 53.008 480.334 50.8717 485.973 48.895M506.473 9.7217C502.473 27.2217 491.573 49.0337 485.973 48.895M506.473 9.7217L508.473 12.7217C511.973 6.72169 527.473 5.52168 527.473 6.72168M485.973 48.895C491.676 46.8962 497.347 45.0605 502.973 43.3773M527.473 6.72168C523.473 23.2217 507.773 44.3018 502.973 43.3773M527.473 6.72168L529.473 10.2217C538.973 3.22168 546.173 3.62169 546.973 5.22169M502.973 43.3773C509.031 41.5651 515.036 39.9296 520.973 38.4573M546.973 5.22169C540.307 16.5454 525.773 39.0458 520.973 38.4573M546.973 5.22169L548.473 7.72169C555.973 2.22171 565.774 2.22169 566.974 4.22169M520.973 38.4573C528.311 36.6379 535.544 35.0678 542.642 33.7217M566.974 4.22169C560.753 14.2217 547.177 34.1217 542.642 33.7217M566.974 4.22169L567.474 8.22171C573.974 4.22169 588.074 3.22169 588.474 5.22169M542.642 33.7217C549.209 32.4764 555.661 31.4227 561.974 30.5407M588.474 5.22169C580.974 13.9343 565.174 31.1958 561.974 30.5407M588.474 5.22169L589.474 8.22171C591.974 5.22169 611.674 2.72166 610.474 6.72168M561.974 30.5407C568.99 29.5602 575.834 28.7917 582.474 28.2075M610.474 6.72168C601.974 13.8077 584.474 28.0253 582.474 28.2075M610.474 6.72168L608.974 10.2217C613.974 7.72169 628.174 6.82171 626.974 9.22171M582.474 28.2075C589.733 27.5688 596.748 27.1504 603.474 26.9164M626.974 9.22171C619.807 15.095 605.074 26.8567 603.474 26.9164M626.974 9.22171L627.974 11.7217C633.307 11.2217 643.974 10.7217 643.974 12.7217C643.974 12.8007 643.956 12.8888 643.921 12.9852M603.474 26.9164C610.101 26.6858 616.448 26.6342 622.474 26.7271M622.474 26.7271C625.863 26.7631 642.85 15.9398 643.921 12.9852M622.474 26.7271C630.592 26.8522 638.126 27.2395 644.974 27.8044M643.921 12.9852L644.974 15.7217C649.64 15.7217 658.974 16.0217 658.974 17.2217M658.974 17.2217C658.974 18.7217 641.974 27.5417 644.974 27.8044M658.974 17.2217V21.2217C664.14 21.0533 674.174 21.3174 672.974 23.7217M644.974 27.8044C650.83 28.2875 656.184 28.9006 660.974 29.5907M672.974 23.7217C671.474 26.7271 662.974 29.8698 660.974 29.5907M672.974 23.7217C678.474 25.3884 688.774 29.1217 685.974 30.7217C682.474 32.7217 681.353 33.8052 679.163 33.2217M660.974 29.5907C668.524 30.6787 674.671 31.9581 679.163 33.2217M679.163 33.2217C682.23 34.0844 684.527 34.9397 685.974 35.7217C678.384 34.7059 670.883 33.9363 663.474 33.3955M385.594 118.222C402.974 115.722 436.974 120.222 440.474 120.222C444.726 120.222 456.307 114.888 462.474 110.222M385.594 118.222C391.972 113.757 398.941 109.06 406.474 104.261M462.474 110.222C445.339 107.248 410.151 101.892 406.474 104.261M462.474 110.222L462.974 107.222C471.474 107.222 483.474 100.822 481.474 99.2217M406.474 104.261C412.184 100.622 418.219 96.9233 424.565 93.2217M481.474 99.2217C465.535 96.2217 431.839 90.8217 424.565 93.2217M481.474 99.2217L482.974 96.7217C489.474 97.2217 498.074 92.4217 496.474 91.2217M424.565 93.2217C430.285 89.8858 436.257 86.5473 442.474 83.2471M496.474 91.2217C480.64 86.9053 447.674 79.2675 442.474 83.2471M496.474 91.2217V87.2217C503.974 88.7217 517.174 84.1217 513.974 81.7217M442.474 83.2471C448.548 80.0226 454.855 76.8347 461.387 73.7217M513.974 81.7217C503.416 78.555 478.117 72.5217 461.387 73.7217M513.974 81.7217L514.474 78.7217C521.474 79.7217 535.174 74.8217 531.974 73.2217M461.387 73.7217C468.235 70.458 475.33 67.2766 482.663 64.2217M531.974 73.2217C523.1 69.8884 500.815 63.4217 482.663 64.2217M531.974 73.2217C538.974 71.3884 552.474 67.2217 550.474 65.2217M482.663 64.2217C489.873 61.2178 497.313 58.3361 504.974 55.6186M550.474 65.2217C548.474 63.2217 519.307 57.9863 504.974 55.6186M550.474 65.2217L552.474 62.7217C558.807 62.555 570.974 61.7217 568.974 59.7217M504.974 55.6186C513.064 52.7484 521.401 50.0613 529.974 47.6067M568.974 59.7217C566.974 57.7217 542.14 50.8117 529.974 47.6067M568.974 59.7217L570.474 56.7217C575.974 56.8884 586.674 56.6217 585.474 54.2217M529.974 47.6067C537.304 45.5077 544.806 43.5788 552.474 41.8508M585.474 54.2217C584.274 51.8217 562.974 44.9744 552.474 41.8508M585.474 54.2217L587.474 52.2217C594.974 52.8884 609.474 53.4217 607.474 50.2217M552.474 41.8508C560.782 39.9783 569.285 38.3417 577.974 36.9803M607.474 50.2217C605.474 47.0217 586.974 40.0608 577.974 36.9803M607.474 50.2217L609.474 47.7217C618.474 53.2217 631.474 52.1217 631.474 49.7217M577.974 36.9803C585.985 35.7251 594.154 34.7038 602.474 33.9473M631.474 49.7217C624.14 44.0388 608.074 32.9278 602.474 33.9473M631.474 49.7217V46.2217C637.974 51.2217 650.474 49.7217 650.474 47.7217M602.474 33.9473C610.984 33.1734 619.654 32.6767 628.474 32.49M650.474 47.7217C646.14 42.1587 635.674 31.3241 628.474 32.49M650.474 47.7217L652.974 45.7217C659.974 47.555 673.874 50.4217 673.474 47.2217M628.474 32.49C634.243 32.3678 640.077 32.3784 645.974 32.5308M673.474 47.2217C673.074 44.0217 654.974 36.0944 645.974 32.5308M673.474 47.2217C677.474 46.3884 685.174 44.2217 683.974 42.2217C682.774 40.2217 669.807 35.5042 663.474 33.3955M645.974 32.5308C651.747 32.6801 657.581 32.9654 663.474 33.3955" stroke="black" stroke-width="5" stroke-linejoin="round"/>
<path d="M338.967 72.0735H321L335.452 83.3235L330.114 100L344.565 89.9412L359.147 100L353.809 82.7941L368 72.0735H350.033L344.565 55L338.967 72.0735Z" stroke="black" stroke-width="5" stroke-linejoin="round"/>
</svg>
