<svg width="96" height="94" viewBox="0 0 96 94" fill="none" xmlns="http://www.w3.org/2000/svg">
<path d="M63.9375 31.3395C68.1818 31.3395 72.2523 29.6885 75.2534 26.7499C78.2546 23.8113 79.9406 19.8256 79.9406 15.6697C79.9406 11.5139 78.2546 7.5282 75.2534 4.58956C72.2523 1.65091 68.1818 0 63.9375 0L31.9313 0C27.6895 0 23.6214 1.64995 20.622 4.58687C17.6226 7.52379 15.9375 11.5071 15.9375 15.6605C15.9375 19.814 17.6226 23.7973 20.622 26.7342C23.6214 29.6711 27.6895 31.3211 31.9313 31.3211C27.687 31.3211 23.6165 32.972 20.6153 35.9106C17.6142 38.8493 15.9281 42.8349 15.9281 46.9908C15.9281 51.1467 17.6142 55.1323 20.6153 58.071C23.6165 61.0096 27.687 62.6605 31.9313 62.6605C28.7661 62.6587 25.6716 63.576 23.0388 65.2963C20.4061 67.0166 18.3535 69.4627 17.1405 72.3252C15.9276 75.1878 15.6088 78.3383 16.2244 81.3783C16.8401 84.4183 18.3626 87.2112 20.5993 89.4039C22.8361 91.5967 25.6867 93.0907 28.7906 93.6971C31.8946 94.3035 35.1125 93.995 38.0374 92.8107C40.9623 91.6264 43.4628 89.6194 45.2228 87.0435C46.9828 84.4677 47.9232 81.4386 47.925 78.3395V31.3395H63.9375ZM63.9375 31.3395C60.7743 31.3395 57.682 32.2579 55.0519 33.9787C52.4217 35.6995 50.3717 38.1454 49.1612 41.007C47.9507 43.8686 47.634 47.0174 48.2511 50.0552C48.8682 53.0931 50.3915 55.8835 52.6282 58.0737C54.865 60.2638 57.7148 61.7554 60.8173 62.3596C63.9198 62.9639 67.1356 62.6538 70.0581 61.4685C72.9805 60.2831 75.4784 58.2759 77.2358 55.7005C78.9933 53.1252 79.9313 50.0974 79.9313 47C79.9308 42.8467 78.2456 38.8637 75.2463 35.9269C72.247 32.99 68.1792 31.3399 63.9375 31.3395Z" fill="#6B7280"/>
</svg>
