<svg width="144" height="162" viewBox="0 0 144 162" fill="none" xmlns="http://www.w3.org/2000/svg">
<path d="M58.3051 111.907C59.4697 112.387 60.5129 112.649 61.7562 112.719C62.4979 112.761 63.2354 112.713 63.9749 112.665C64.9288 112.605 65.9127 112.6 66.8691 112.594C67.9009 112.587 68.9328 112.345 69.9526 112.211C73.5435 111.738 77.167 110.73 80.5106 109.366C84.6532 107.674 88.249 104.347 90.8028 100.724C92.0135 99.0072 93.1078 97.1563 93.764 95.1466C94.2386 93.6932 94.6917 91.9239 94.3789 90.4053" stroke="#6B7280" stroke-width="6" stroke-linecap="round"/>
<mask id="mask0_223_123" style="mask-type:alpha" maskUnits="userSpaceOnUse" x="4" y="9" width="121" height="145">
<path fill-rule="evenodd" clip-rule="evenodd" d="M31.9508 19.2441C13.1748 23.1115 1.08866 41.4693 4.95568 60.2472L9.99703 84.7277C11.9786 94.35 17.7644 102.215 25.4618 107.078C29.951 109.913 33.18 114.7 34.2512 119.901L35.7449 127.154C39.3541 144.68 56.4864 155.962 74.0106 152.352L92.1425 148.617C109.667 145.008 120.947 127.874 117.338 110.348L115.844 103.094C114.773 97.8932 115.848 92.2204 118.852 87.8411C124.002 80.3329 126.209 70.8212 124.227 61.1991L119.186 36.7186C115.319 17.9405 96.9631 5.8531 78.187 9.72052L31.9508 19.2441Z" fill="white"/>
</mask>
<g mask="url(#mask0_223_123)">
<path d="M33.997 18.4546L35.8642 27.5215L33.997 18.4546ZM37.7911 126.365L28.7252 128.232L37.7911 126.365ZM119.384 109.558L110.318 111.426L119.384 109.558ZM126.273 60.4096L117.208 62.277L126.273 60.4096ZM121.232 35.9291L130.298 34.0617L121.232 35.9291ZM80.2332 8.93102L78.366 -0.135827L80.2332 8.93102ZM120.898 87.0516L113.265 81.8153L120.898 87.0516ZM27.508 106.288L22.5651 114.115L27.508 106.288ZM16.0678 57.5906C13.232 43.8199 22.0952 30.3574 35.8642 27.5215L32.13 9.3877C8.34694 14.2864 -6.96222 37.5396 -2.064 61.3251L16.0678 57.5906ZM21.1091 82.0708L16.0678 57.5906L-2.064 61.3251L2.97735 85.8056L21.1091 82.0708ZM32.4508 98.4613C26.7922 94.8871 22.5625 89.1285 21.1091 82.0708L2.97735 85.8056C5.487 97.9924 12.8289 107.965 22.5651 114.115L32.4508 98.4613ZM46.8571 124.497L45.3634 117.244L27.2314 120.978L28.7252 128.232L46.8571 124.497ZM74.1896 142.496C61.6723 145.074 49.4351 137.016 46.8571 124.497L28.7252 128.232C33.3657 150.766 55.3926 165.271 77.924 160.63L74.1896 142.496ZM92.3215 138.761L74.1896 142.496L77.924 160.63L96.0557 156.895L92.3215 138.761ZM110.318 111.426C112.896 123.944 104.839 136.183 92.3215 138.761L96.0557 156.895C118.587 152.254 133.091 130.225 128.45 107.691L110.318 111.426ZM108.825 104.172L110.318 111.426L128.45 107.691L126.956 100.437L108.825 104.172ZM117.208 62.277C118.661 69.3344 117.051 76.2958 113.265 81.8153L128.531 92.2879C135.045 82.7908 137.849 70.7288 135.339 58.5422L117.208 62.277ZM112.166 37.7965L117.208 62.277L135.339 58.5422L130.298 34.0617L112.166 37.7965ZM82.1004 17.9979C95.8694 15.1618 109.33 24.0258 112.166 37.7965L130.298 34.0617C125.4 10.2762 102.149 -5.03458 78.366 -0.135827L82.1004 17.9979ZM35.8642 27.5215L82.1004 17.9979L78.366 -0.135827L32.13 9.3877L35.8642 27.5215ZM126.956 100.437C126.375 97.6166 126.998 94.5229 128.531 92.2879L113.265 81.8153C108.791 88.3391 107.263 96.5907 108.825 104.172L126.956 100.437ZM22.5651 114.115C24.8561 115.562 26.6506 118.158 27.2314 120.978L45.3634 117.244C43.8021 109.662 39.1386 102.686 32.4508 98.4613L22.5651 114.115Z" fill="#6B7280"/>
<path d="M78.6058 53.1478C77.28 46.7096 70.9866 42.5653 64.5491 43.8913C58.1116 45.2173 53.9677 51.5114 55.2936 57.9496L57.961 70.9022C59.2868 77.3404 65.5802 81.4847 72.0177 80.1587C78.4552 78.8327 82.599 72.5386 81.2732 66.1004L78.6058 53.1478Z" fill="#6B7280" stroke="#6B7280" stroke-width="4"/>
<path d="M74.5557 123.16L82.4162 119.274" stroke="#6B7280" stroke-width="6" stroke-linecap="round"/>
</g>
</svg>
