<svg width="209" height="216" viewBox="0 0 209 216" fill="none" xmlns="http://www.w3.org/2000/svg">
<path d="M69.9054 167.653C69.9054 168.497 68.9363 169.172 67.7143 169.172C66.3238 169.298 65.3546 168.623 65.3546 167.653C65.3546 166.809 66.3238 166.134 67.5458 166.134C68.8099 166.008 69.9054 166.683 69.9054 167.653ZM56.8008 165.755C56.5058 166.598 57.3486 167.569 58.6127 167.822C59.7083 168.244 60.9724 167.822 61.2252 166.978C61.478 166.134 60.6774 165.164 59.4133 164.784C58.3177 164.489 57.0958 164.911 56.8008 165.755ZM75.4254 165.038C74.2034 165.333 73.3607 166.134 73.4871 167.105C73.6135 167.948 74.7091 168.497 75.9732 168.202C77.1952 167.906 78.0379 167.105 77.9115 166.261C77.7851 165.459 76.6474 164.911 75.4254 165.038ZM103.152 3.375C44.7075 3.375 0 47.7984 0 106.312C0 153.098 29.4117 193.134 71.4224 207.225C76.8159 208.195 78.7121 204.863 78.7121 202.12C78.7121 199.505 78.5857 185.077 78.5857 176.217C78.5857 176.217 49.0897 182.545 42.8956 163.645C42.8956 163.645 38.0919 151.369 31.1815 148.205C31.1815 148.205 21.5321 141.581 31.8556 141.708C31.8556 141.708 42.3478 142.552 48.1206 152.592C57.3486 168.877 72.8129 164.194 78.8385 161.409C79.8077 154.659 82.5466 149.977 85.5804 147.192C62.0258 144.577 38.2605 141.159 38.2605 100.575C38.2605 88.9734 41.4629 83.1516 48.2048 75.7266C47.1093 72.9844 43.5276 61.6781 49.3004 47.0812C58.1071 44.3391 78.375 58.4719 78.375 58.4719C86.8024 56.1094 95.8619 54.8859 104.837 54.8859C113.812 54.8859 122.872 56.1094 131.299 58.4719C131.299 58.4719 151.567 44.2969 160.374 47.0812C166.147 61.7203 162.565 72.9844 161.469 75.7266C168.211 83.1938 172.341 89.0156 172.341 100.575C172.341 141.286 147.522 144.534 123.967 147.192C127.844 150.525 131.131 156.853 131.131 166.767C131.131 180.984 131.004 198.577 131.004 202.036C131.004 204.778 132.943 208.111 138.294 207.141C180.431 193.134 209 153.098 209 106.312C209 47.7984 161.596 3.375 103.152 3.375ZM40.9573 148.88C40.4095 149.302 40.5359 150.272 41.2522 151.073C41.9264 151.748 42.8956 152.044 43.4433 151.495C43.9911 151.073 43.8647 150.103 43.1484 149.302C42.4742 148.627 41.505 148.331 40.9573 148.88ZM36.4065 145.462C36.1115 146.011 36.5329 146.686 37.3756 147.108C38.0498 147.53 38.8925 147.403 39.1875 146.812C39.4825 146.264 39.0611 145.589 38.2183 145.167C37.3756 144.914 36.7014 145.041 36.4065 145.462ZM50.0589 160.481C49.3847 161.03 49.6375 162.295 50.6067 163.097C51.5758 164.067 52.7978 164.194 53.3456 163.519C53.8933 162.97 53.6405 161.705 52.7978 160.903C51.8708 159.933 50.6067 159.806 50.0589 160.481ZM45.2552 154.28C44.581 154.702 44.581 155.798 45.2552 156.769C45.9294 157.739 47.0671 158.161 47.6149 157.739C48.2891 157.191 48.2891 156.094 47.6149 155.123C47.025 154.153 45.9294 153.731 45.2552 154.28Z" fill="#374151"/>
</svg>
