<svg width="727" height="718" viewBox="0 0 727 718" fill="none" xmlns="http://www.w3.org/2000/svg">
<path d="M316.335 233.199C316.335 231.108 319.129 228.832 324.717 226.389C330.305 223.947 336.411 222.023 343.035 220.635C350.011 218.896 356.302 218.026 361.89 218.026C367.83 217.674 370.79 218.896 370.79 221.69C370.79 226.926 370.439 234.42 369.736 244.19C369.033 253.608 368.163 263.729 367.127 274.554C366.072 285.027 365.036 295.666 363.981 306.491C362.926 316.964 362.242 325.864 361.89 333.191C361.187 340.87 360.502 349.252 359.799 358.319C359.096 365.998 358.578 374.546 358.227 383.965C357.875 393.383 357.875 402.986 358.227 412.756C358.227 414.495 356.487 416.253 352.99 417.992C349.493 419.732 345.663 420.953 341.481 421.656C337.299 422.711 333.284 423.229 329.435 423.229C325.586 423.229 323.496 422.526 323.144 421.138C322.441 419.75 321.756 417.308 321.053 413.811C320.35 410.314 319.665 405.429 318.962 399.156C318.259 392.532 317.741 384.15 317.389 374.028C317.038 363.555 317.223 350.992 317.908 336.337C319.295 307.379 319.48 285.045 318.426 269.336C317.371 253.275 316.686 241.248 316.335 233.217V233.199ZM352.99 129.024C359.966 129.024 366.609 131.115 372.881 135.297C379.172 139.479 382.299 145.067 382.299 152.043C382.299 157.279 380.912 162.331 378.118 167.215C375.675 172.1 372.53 176.467 368.699 180.297C364.851 184.128 360.502 187.273 355.618 189.716C350.733 191.807 346.199 192.861 341.999 192.861C336.411 192.861 331.878 191.992 328.38 190.252C324.883 188.161 322.089 185.885 319.998 183.443C318.259 180.649 317.038 177.688 316.335 174.543C315.632 171.397 315.28 168.437 315.28 165.643C315.28 162.146 315.798 158.315 316.853 154.134C317.908 149.6 319.813 145.585 322.607 142.088C325.401 138.258 329.232 135.112 334.117 132.67C339.001 130.227 345.293 129.006 352.972 129.006L352.99 129.024ZM339.908 177.707C341.999 177.707 344.275 177.004 346.717 175.616C349.511 173.877 351.954 171.952 354.045 169.861C356.487 167.771 358.412 165.495 359.799 163.052C361.539 160.61 362.427 158.519 362.427 156.78C362.427 153.985 361.039 152.598 358.245 152.598C356.506 152.598 354.23 153.301 351.436 154.689C348.993 156.076 346.551 157.834 344.108 159.925C341.666 161.664 339.575 163.755 337.817 166.198C336.429 168.289 335.726 170.38 335.726 172.47C335.726 175.968 337.114 177.707 339.908 177.707Z" fill="#1F2937"/>
<path fill-rule="evenodd" clip-rule="evenodd" d="M555.177 354.285C552.383 367.626 548.016 379.653 542.095 390.385C536.526 401.173 529.605 410.332 521.353 417.863C513.156 425.061 503.849 430.316 493.431 433.628C483.365 436.996 472.615 437.958 461.18 436.515C451.132 435.293 442.029 431.389 433.869 424.82C426.06 418.289 419.602 409.87 414.514 399.526C409.425 389.183 406.15 377.378 404.707 364.074C403.652 350.492 405.022 336.226 408.778 321.257C412.571 303.845 418.196 289.357 425.672 277.811C433.184 265.913 440.696 256.328 448.209 249.019C455.721 241.71 462.345 236.585 468.118 233.587C474.28 230.312 478.11 228.443 479.591 227.962C482.162 227.315 484.438 227.481 486.4 228.499C488.417 229.165 490.582 230.035 492.876 231.108C493.505 231.57 494.079 232.533 494.541 234.013C495.54 236.64 495.707 241.266 495.022 247.872C497.354 244.356 500.074 241.599 503.201 239.619C506.328 237.64 509.363 236.344 512.286 235.752C514.303 235.29 516.301 234.994 518.263 234.846C519.872 234.716 521.464 234.716 523.037 234.79C525.498 234.827 529.346 237.362 534.564 242.432C540.115 247.539 544.963 255.014 549.071 264.84C553.53 274.72 556.694 287.229 558.545 302.365C560.469 317.149 559.34 334.45 555.177 354.285ZM475.113 290.319L479.165 264.451C473.41 269.558 468.544 275.849 464.547 283.362C460.884 290.911 457.793 298.201 455.296 305.214C452.557 313.615 450.17 322.071 448.135 330.582C446.321 339.834 445.248 349.03 444.86 358.152C444.841 367.33 445.655 375.583 447.339 382.91C449.356 390.293 452.113 396.381 455.61 401.154C459.107 405.947 463.807 408.63 469.728 409.203C475.649 409.777 481.2 408.186 486.381 404.393C491.562 400.618 496.429 395.548 500.962 389.201C505.495 382.855 509.474 375.527 512.897 367.238C516.32 358.948 519.021 350.714 521.001 342.554C522.648 334.339 523.592 326.012 523.869 317.574C524.535 308.841 524.369 300.866 523.388 293.65C522.796 286.137 521.445 280.105 519.336 275.535C517.282 270.613 514.877 267.948 512.12 267.504C508.9 267.708 505.218 268.725 501.036 270.539C497.613 272.13 493.653 274.85 489.138 278.736" fill="#1F2937"/>
<path d="M235.956 584.968C235.956 582.969 237.14 581.507 239.508 580.582C242.062 579.491 244.708 578.935 247.446 578.935C250.37 578.935 253.016 579.472 255.384 580.582C257.753 581.489 258.844 582.766 258.659 584.412C258.474 585.689 258.289 588.243 258.123 592.073C257.938 595.718 257.66 600.103 257.309 605.21C257.124 610.317 256.846 615.794 256.495 621.641C256.124 627.488 255.773 633.225 255.403 638.887C255.218 644.364 255.033 649.471 254.866 654.226V665.18C254.866 668.474 255.051 671.471 255.403 674.21C255.773 676.578 256.217 678.965 256.772 681.333C257.309 683.517 258.141 685.071 259.233 685.996C257.771 686.551 256.217 686.903 254.589 687.088C253.127 687.273 251.758 687.458 250.481 687.643C249.019 687.828 247.557 687.921 246.096 687.921C242.987 687.921 240.36 687.273 238.158 685.996C236.159 684.72 235.142 682.074 235.142 678.058C235.142 676.06 235.234 673.136 235.419 669.306C235.789 665.476 236.159 661.368 236.511 656.983C235.234 660.813 233.68 664.736 231.866 668.751C230.053 672.766 227.759 676.319 225.02 679.428C222.467 682.536 219.543 685.09 216.268 687.088C212.993 689.105 209.255 690.104 205.055 690.104C200.318 690.104 195.933 689.105 191.918 687.088C188.087 685.09 184.72 682.259 181.796 678.595C178.873 674.765 176.689 670.102 175.227 664.625C173.766 659.148 173.229 652.857 173.581 645.733C173.581 640.256 173.673 634.409 173.858 628.21C174.043 622.918 174.321 616.793 174.672 609.873C175.042 602.934 175.672 595.737 176.578 588.243C176.763 587.521 178.04 586.596 180.408 585.504C182.777 584.412 185.423 583.487 188.346 582.766C191.27 582.026 194.082 581.766 196.821 581.951C199.559 582.137 201.558 583.228 202.835 585.245C201.928 588.539 201.003 592.461 200.096 597.013C199.189 601.399 198.357 605.95 197.635 610.706C196.913 615.443 196.358 620.106 195.988 624.676C195.618 629.246 195.433 633.447 195.433 637.277C195.433 640.737 195.618 644.586 195.988 648.767C196.358 652.783 196.987 656.613 197.894 660.258C198.986 663.718 200.448 666.642 202.279 669.029C204.278 671.397 206.831 672.581 209.94 672.581C213.4 672.581 216.416 671.12 218.97 668.196C221.708 665.087 223.984 661.165 225.816 656.428C227.648 651.691 229.183 646.288 230.46 640.274C231.737 634.076 232.736 627.951 233.476 621.937C234.383 615.905 234.938 610.169 235.123 604.692C235.493 599.03 235.752 594.293 235.937 590.445V584.968H235.956ZM279.439 589.889C279.439 588.798 280.901 587.614 283.824 586.337C286.748 585.06 289.93 584.061 293.409 583.321C297.054 582.414 300.329 581.951 303.253 581.951C306.361 581.766 307.897 582.414 307.897 583.876C307.897 586.614 307.712 590.537 307.36 595.644C306.99 600.566 306.546 605.858 305.991 611.52C305.436 616.997 304.9 622.566 304.344 628.229C303.789 633.706 303.438 638.368 303.253 642.199C302.883 646.214 302.531 650.599 302.161 655.336C301.791 659.351 301.532 663.829 301.347 668.751C301.162 673.673 301.162 678.706 301.347 683.813C301.347 684.72 300.44 685.645 298.608 686.551C296.777 687.458 294.778 688.106 292.595 688.476C290.411 689.031 288.302 689.29 286.304 689.29C284.305 689.29 283.195 688.92 283.028 688.198C282.658 687.477 282.307 686.2 281.937 684.368C281.567 682.536 281.215 679.983 280.845 676.708C280.475 673.247 280.197 668.862 280.031 663.57C279.846 658.093 279.938 651.524 280.308 643.864C281.049 628.71 281.123 617.034 280.586 608.818C280.049 600.418 279.679 594.127 279.494 589.926L279.439 589.889ZM298.59 535.397C302.235 535.397 305.695 536.489 308.989 538.69C312.264 540.874 313.911 543.797 313.911 547.461C313.911 550.2 313.189 552.846 311.727 555.399C310.451 557.953 308.804 560.228 306.805 562.245C304.807 564.244 302.513 565.89 299.959 567.167C297.406 568.259 295.037 568.814 292.854 568.814C289.93 568.814 287.562 568.351 285.748 567.445C283.917 566.353 282.473 565.169 281.363 563.892C280.456 562.43 279.809 560.876 279.439 559.229C279.069 557.582 278.902 556.028 278.902 554.566C278.902 552.735 279.18 550.736 279.716 548.553C280.253 546.184 281.271 544.075 282.732 542.262C284.194 540.263 286.193 538.616 288.746 537.34C291.3 536.063 294.575 535.415 298.59 535.415V535.397ZM291.744 560.858C292.835 560.858 294.02 560.487 295.296 559.766C296.758 558.859 298.035 557.86 299.126 556.75C300.403 555.658 301.402 554.474 302.143 553.197C303.049 551.92 303.512 550.829 303.512 549.904C303.512 548.442 302.772 547.72 301.328 547.72C300.422 547.72 299.237 548.09 297.776 548.812C296.499 549.533 295.222 550.459 293.946 551.55C292.669 552.457 291.577 553.567 290.67 554.844C289.949 555.936 289.579 557.027 289.579 558.138C289.579 559.969 290.3 560.876 291.762 560.876L291.744 560.858ZM362.316 509.381C361.946 515.95 361.317 523.518 360.41 532.103C359.503 540.689 358.504 549.904 357.394 559.747C356.487 569.61 355.488 579.916 354.378 590.685C353.471 601.454 352.638 612.316 351.917 623.27C351.195 634.224 350.825 643.161 350.825 650.1C351.01 656.853 351.473 662.423 352.194 666.808C352.934 671.194 353.934 674.654 355.21 677.207C356.487 679.761 358.134 682.222 360.132 684.59C357.764 686.052 355.58 687.144 353.564 687.884C351.565 688.605 349.826 689.16 348.364 689.53C346.532 690.067 344.904 690.345 343.442 690.345C340.704 690.345 338.335 689.068 336.337 686.514C334.339 683.776 332.692 680.316 331.415 676.115C330.323 671.915 329.417 667.271 328.676 662.145C328.14 656.853 327.862 651.654 327.862 646.547C327.862 641.07 328.047 634.779 328.417 627.655C328.787 620.346 329.139 612.686 329.509 604.655C330.064 596.44 330.601 587.947 331.156 579.194C331.693 570.257 332.155 561.394 332.525 552.642C332.895 545.888 333.247 539.764 333.617 534.305C333.987 529.55 334.246 525.275 334.431 521.427C334.616 517.411 334.524 515.043 334.153 514.303C335.245 512.841 336.614 511.749 338.261 511.009C339.908 510.269 341.444 509.64 342.906 509.085C344.737 508.53 346.551 508.086 348.383 507.716H353.582C355.044 507.716 356.598 507.901 358.226 508.271C359.873 508.456 361.243 508.826 362.334 509.363L362.316 509.381ZM464.066 480.886C464.066 482.884 463.881 486.825 463.53 492.654C463.159 498.501 462.715 537.58 462.16 545.796C461.605 554.011 461.069 563.041 460.513 572.903C459.958 582.766 459.514 592.794 459.144 603.027C458.774 613.241 458.404 622.826 458.052 631.781C457.867 640.552 457.775 648.397 457.775 655.336C457.96 662.275 458.312 668.122 458.867 672.859C459.422 677.429 460.236 680.519 461.328 682.166L449.023 686.829C448.116 687.199 447.024 687.384 445.729 687.384C444.434 687.384 443.083 687.014 441.621 686.292C440.345 685.552 439.253 684.275 438.328 682.462C437.421 680.63 436.959 678.077 436.959 674.802V670.139C437.144 668.122 437.236 665.846 437.236 663.293C435.053 666.938 432.684 670.509 430.131 673.969C427.577 677.429 424.746 680.445 421.656 682.999C418.733 685.552 415.55 687.569 412.071 689.031C408.611 690.678 404.966 691.492 401.136 691.492C397.306 691.492 393.938 690.678 390.478 689.031C387.018 687.569 383.909 685.293 381.171 682.185C378.432 679.076 376.156 675.061 374.324 670.139C372.678 665.217 371.863 659.277 371.863 652.339C371.863 639.738 373.325 628.784 376.249 619.476C379.172 609.984 382.818 602.139 387.184 595.922C391.736 589.538 396.584 584.782 401.691 581.674C406.983 578.38 411.812 576.752 416.198 576.752C422.951 576.752 428.132 578.584 431.796 582.229C435.441 585.689 438.087 589.353 439.734 593.183C439.919 587.891 440.012 582.969 440.012 578.399C440.197 573.643 440.289 569.647 440.289 566.353C440.289 552.846 440.012 508.752 439.475 498.168C438.938 487.584 437.569 479.553 435.367 474.076C437.921 472.615 440.197 471.523 442.214 470.783C444.397 470.061 446.321 469.506 447.95 469.136C449.948 468.581 451.687 468.322 453.149 468.322C457.164 468.322 459.995 469.506 461.624 471.875C463.27 474.058 464.085 477.074 464.085 480.904L464.066 480.886ZM438.513 608.763C437.791 605.839 426.948 597.901 425.505 596.44C423.858 594.793 421.952 593.886 419.769 593.701C416.475 593.701 413.2 595.533 409.925 599.178C406.835 602.823 404.004 607.394 401.45 612.871C399.082 618.163 397.158 623.917 395.714 630.116C394.253 636.148 393.531 641.699 393.531 646.825C393.531 657.038 394.9 664.162 397.639 668.177C400.562 672.193 403.652 674.21 406.946 674.21C409.684 674.21 412.516 673.118 415.421 670.916C418.511 668.733 421.434 665.902 424.173 662.423C427.096 658.963 429.742 655.299 432.111 651.469C434.664 647.454 436.663 643.623 438.124 639.978C438.494 635.241 438.679 630.301 438.679 625.194C438.864 619.902 439.049 614.61 439.216 609.318M516.634 689.808C503.867 689.808 494.023 685.515 487.084 676.948C480.164 668.363 476.685 657.149 476.685 643.272C476.685 633.595 478.055 624.565 480.793 616.164C483.717 607.579 487.547 600.196 492.284 593.979C497.021 587.78 502.498 582.932 508.696 579.472C515.08 575.827 521.741 573.995 528.662 573.995C535.582 573.995 541.151 576.456 545.888 581.378C550.625 586.133 552.994 592.98 552.994 601.917C552.994 607.764 551.717 613.592 549.163 619.439C546.61 625.101 543.242 630.208 539.042 634.76C535.027 639.146 530.567 642.698 525.646 645.437C520.724 648.175 515.987 649.545 511.416 649.545C508.493 649.545 506.032 649.174 504.034 648.453C502.035 647.731 500.203 646.621 498.575 645.159C499.112 655.558 501.406 662.867 505.403 667.067C509.418 671.083 514.617 673.099 521.001 673.099C525.387 673.099 529.217 672.193 532.492 670.361C535.952 668.529 538.876 666.438 541.244 664.07C543.612 661.701 545.537 659.333 546.98 656.946C548.442 654.392 549.441 652.468 549.996 651.191C550.551 650.1 551.458 649.545 552.735 649.545C554.196 649.545 554.918 650.636 554.918 652.838C554.918 654.837 554.196 657.945 552.735 662.145C551.458 666.161 549.274 670.268 546.166 674.469C543.076 678.484 539.061 682.037 534.139 685.145C529.402 688.254 523.555 689.808 516.634 689.808ZM529.217 585.763C528.125 585.763 526.016 586.947 522.926 589.316C520.002 591.499 516.819 594.793 513.359 599.178C510.084 603.564 506.976 608.855 504.052 615.054C501.314 621.086 499.593 627.933 498.853 635.593C509.788 633.039 518.448 629.024 524.831 623.547C531.215 618.07 534.398 610.04 534.398 599.456C534.398 594.164 533.769 590.611 532.492 588.779C531.215 586.781 530.123 585.763 529.217 585.763ZM644.919 602.731C644.919 605.284 644.179 607.93 642.735 610.669C641.459 613.222 639.812 615.683 637.813 618.052C635.815 620.42 633.521 622.53 630.967 624.343C628.599 625.99 626.323 626.989 624.121 627.359C625.583 621.697 626.027 617.312 625.49 614.221C624.935 611.113 624.028 608.837 622.752 607.375C621.29 605.728 619.476 604.822 617.275 604.637C613.999 604.637 610.798 606.543 607.69 610.391C604.766 614.036 602.213 618.607 600.029 624.084C597.846 629.376 596.107 635.13 594.83 641.329C593.553 647.343 592.906 652.82 592.906 657.76C592.72 661.22 592.813 664.606 593.183 667.9C593.368 670.638 593.646 673.469 593.997 676.393C594.534 679.317 595.274 681.592 596.181 683.239C595.089 684.146 593.257 685.238 590.704 686.533C588.335 687.81 585.782 688.624 583.043 688.994C580.49 689.364 578.121 688.901 575.938 687.625C573.94 686.348 572.829 683.609 572.644 679.409C572.274 675.394 572.015 670.916 571.83 665.994V650.932C572.015 645.825 572.2 640.792 572.385 635.87C572.57 630.949 572.848 626.378 573.199 622.178C573.569 614.147 573.736 607.949 573.736 603.563C573.736 599.178 573.643 594.978 573.458 590.963C573.458 590.241 574.643 589.223 577.011 587.947C579.565 586.485 582.303 585.208 585.227 584.116C588.317 583.025 591.148 582.377 593.701 582.192C596.255 582.007 597.531 582.562 597.531 583.839C597.531 585.837 597.254 589.852 596.717 595.885C596.347 601.732 595.811 607.838 595.07 614.221C596.347 610.761 597.994 607.005 599.992 602.99C602.176 598.975 604.637 595.237 607.375 591.758C610.114 588.298 613.204 585.467 616.682 583.265C620.143 580.897 623.973 579.713 628.173 579.713C631.448 579.713 634.094 580.712 636.111 582.729C638.294 584.727 640.034 587.021 641.311 589.575C642.587 592.128 643.494 594.682 644.049 597.235C644.604 599.789 644.863 601.621 644.863 602.712L644.919 602.731ZM696.895 634.76C700.91 636.222 704.74 637.591 708.385 638.868C712.031 640.145 715.232 641.699 717.97 643.531C720.709 645.363 722.892 647.546 724.539 650.1C726.186 652.468 727 655.484 727 659.129C727 663.515 726.001 667.622 723.984 671.453C722.152 675.283 719.432 678.65 715.787 681.574C712.142 684.498 707.664 686.773 702.39 688.42C697.283 690.252 691.547 691.159 685.164 691.159C678.058 691.159 672.304 690.419 667.937 688.975C663.552 687.699 660.184 686.144 657.816 684.312C655.447 682.481 653.893 680.667 653.171 678.835C652.431 677.004 652.079 675.542 652.079 674.45C652.079 672.267 652.542 669.88 653.449 667.326C654.355 664.588 656.095 661.664 658.648 658.556C659.74 657.279 660.924 656.095 662.201 655.003C664.754 652.82 667.308 651.45 669.861 650.895C669.491 655.096 669.954 658.556 671.231 661.294C672.692 663.848 674.506 665.865 676.708 667.308C679.076 668.77 681.629 669.769 684.368 670.324C687.292 670.879 690.03 671.138 692.583 671.138C695.137 671.138 697.69 670.768 700.244 670.046C702.982 669.325 705.443 668.4 707.627 667.308C709.81 666.031 711.549 664.662 712.826 663.2C714.288 661.553 715.01 659.832 715.01 658.001C715.01 656.002 714.195 654.355 712.549 653.079C710.902 651.802 708.811 650.803 706.258 650.063C703.889 649.156 701.243 648.508 698.32 648.138C695.581 647.583 692.935 647.047 690.382 646.491C687.828 645.955 684.368 645.215 679.983 644.308C675.782 643.216 671.601 641.57 667.4 639.386C663.385 637.203 659.832 634.279 656.742 630.616C653.819 626.97 652.357 622.122 652.357 616.109C652.357 609.17 654.096 603.156 657.556 598.031C661.202 592.739 665.587 588.354 670.694 584.894C675.986 581.248 681.537 578.51 687.384 576.678C693.213 574.846 698.412 573.939 702.982 573.939C705.351 573.939 707.904 574.31 710.643 575.031C713.381 575.586 715.935 576.678 718.303 578.325C720.672 579.787 722.596 581.785 724.039 584.357C725.686 586.91 726.5 590.204 726.5 594.219C726.5 598.235 726.13 601.528 725.409 604.082C724.854 606.45 723.947 608.374 722.67 609.836C721.578 611.113 720.209 611.946 718.562 612.297C716.916 612.667 715.01 612.834 712.826 612.834C711.365 612.834 709.995 612.649 708.719 612.297C707.627 611.927 706.443 611.557 705.166 611.205C703.889 610.835 702.705 610.206 701.613 609.3C703.445 607.116 704.796 605.007 705.721 603.008C706.813 600.992 707.368 598.531 707.368 595.607C707.368 593.054 706.646 590.778 705.184 588.761C703.908 586.762 701.724 585.745 698.616 585.745C695.322 585.745 692.139 586.374 689.031 587.669C686.107 588.946 683.461 590.685 681.093 592.869C678.909 595.052 677.078 597.605 675.616 600.529C674.339 603.267 673.71 606.283 673.71 609.559C673.71 614.48 675.542 619.143 679.187 623.529C683.017 627.914 688.938 631.652 696.969 634.76H696.895Z" fill="#1F2937"/>
<path fill-rule="evenodd" clip-rule="evenodd" d="M18.4663 553.604C21.4638 554.77 24.3134 555.566 27.0334 556.01C23.7027 548.793 23.2402 542.558 25.6641 537.321C28.0881 532.085 31.8442 527.718 36.9512 524.258C38.3019 535.526 39.8192 549.052 41.503 564.854L47.2391 613.037C48.9599 627.507 50.4217 641.329 51.6059 654.522C52.9937 667.696 54.0484 679.094 54.8255 688.716C47.1836 688.494 40.3188 687.588 34.2312 686.033C33.7501 688.383 33.6021 690.4 33.8056 692.084C34.2127 693.934 34.6938 695.6 35.2489 697.061C35.8225 698.708 36.5626 700.04 37.4323 701.095C39.0236 701.669 40.7814 702.131 42.7428 702.464C44.8892 702.964 46.9431 703.389 48.8859 703.741C51.0323 704.241 53.2712 704.555 55.5657 704.666C55.5657 706.184 55.6397 707.701 55.8247 709.2C55.9727 710.513 56.0467 711.846 56.0097 713.178L56.5093 717.397C59.914 717.175 63.2446 716.49 66.5382 715.343C69.4802 714.418 72.4593 713.122 75.4939 711.42C78.7319 709.884 81.6185 707.738 84.1535 704.962L87.5396 704.555C97.9015 703.704 107.135 701.373 115.258 697.542C123.547 693.694 130.505 688.864 136.093 683.054C141.681 677.244 145.862 670.749 148.619 663.57C151.543 656.169 152.727 648.508 152.154 640.57C151.932 635.463 150.951 630.523 149.249 625.768C147.546 621.012 145.141 616.83 142.051 613.204C138.961 609.577 135.075 606.598 130.431 604.304C125.953 601.787 120.624 600.233 114.462 599.641C119.847 596.902 124.898 593.738 129.598 590.13C134.298 586.522 138.498 582.507 142.143 578.066C145.788 573.44 148.804 568.425 151.191 562.985C153.56 557.36 154.948 551.31 155.299 544.778C155.78 539.19 155.059 533.176 153.153 526.756C151.432 520.298 148.046 514.321 143.013 508.826C137.961 503.145 130.93 498.445 121.919 494.763C112.908 491.081 101.565 489.194 87.8356 489.101C76.419 489.12 66.1681 490.063 57.0459 491.914L56.8794 490.507L56.7499 489.379C56.8794 488.787 56.9164 488.306 56.8609 487.936C56.7129 486.622 55.7322 485.678 53.9559 485.141C52.3646 484.568 49.8296 484.864 46.3509 486.048C42.6873 487.251 39.6712 489.12 37.3213 491.692C35.1194 494.042 34.0647 496.262 34.1202 498.353L34.2127 499.204C24.4614 503.608 16.912 508.881 11.546 515.043C6.19849 521.205 3.31195 527.459 2.92338 533.787C2.71984 536.859 3.33046 539.653 4.77372 542.132C6.21699 544.63 8.10434 546.887 10.4358 548.886C12.9337 550.681 15.5982 552.272 18.4293 553.641L18.4663 553.604ZM62.782 548.83C61.2092 535.693 60.0435 524.295 59.2848 514.673C60.7651 514.303 62.1529 514.044 63.4666 513.896L67.963 513.359C74.9017 512.527 81.6555 512.49 88.2242 513.23C94.978 513.951 100.955 515.524 106.191 517.948C111.613 520.354 116.09 523.629 119.643 527.773C123.159 531.733 125.25 536.526 125.934 542.169C126.804 549.496 125.638 556.491 122.437 563.152C119.217 569.628 114.777 575.494 109.115 580.749C103.638 585.967 97.4204 590.426 90.4446 594.108C83.4318 597.605 76.5855 600.048 69.9058 601.417C69.5357 599.937 69.2767 598.531 69.1287 597.235L68.5921 592.72C66.2976 576.604 64.3548 561.986 62.8005 548.83H62.782ZM125.509 645.529C125.268 637.184 123.27 630.745 119.495 626.249C115.702 621.549 111.039 618.311 105.488 616.497C100.103 614.462 94.2933 613.537 88.0207 613.722C81.9515 613.87 76.493 614.425 71.6636 615.387C73.9026 630.93 75.8639 645.085 77.5847 657.834C79.2686 670.398 80.6933 680.704 81.8405 688.753C87.6876 688.254 93.2386 686.921 98.4936 684.775C103.749 682.629 108.356 679.687 112.297 675.986C116.423 672.248 119.699 667.863 122.141 662.811C124.565 657.575 125.675 651.82 125.509 645.548V645.529Z" fill="#1F2937"/>
<path fill-rule="evenodd" clip-rule="evenodd" d="M301.471 160.402C300.06 157.659 303.783 150.645 303.783 150.645L298.95 146.399C298.95 146.399 303.456 136.133 299.08 137.152C294.705 138.17 291.217 129.785 293.229 128.544C295.24 127.303 297.382 116.814 297.382 116.814L280.82 108.415C263.108 104.888 269.756 84.146 269.756 84.146C260.012 55.7231 228.911 50.7334 228.911 50.7334L228.598 6.83204C199.752 -15.7175 138.595 20.2997 121.361 74.6005C120.152 74.6801 118.967 74.7836 117.806 74.9109C117.114 66.3162 113.848 62.711 108.01 64.0826C103.882 64.7748 99.4148 66.6558 94.608 69.7515C90.1408 72.8472 86.0132 76.2825 82.2383 80.0574C72.6116 82.4608 63.847 85.5565 55.9445 89.3314C48.3816 92.7667 40.9885 96.7245 33.7783 101.192C29.6507 103.935 25.3533 107.723 20.8861 112.529C16.4189 116.997 12.4611 122.326 9.02584 128.504C5.59053 134.343 3.01732 140.704 1.29314 147.575C-0.431046 154.106 -0.431046 160.637 1.29314 167.155C3.01732 172.654 5.06805 177.63 7.48452 182.098C9.54832 185.873 12.1215 189.661 15.2172 193.435C18.3129 196.871 22.0878 198.935 26.555 199.627C29.3111 185.193 34.4575 172.484 42.0204 161.486C49.5833 150.488 58.5177 141.553 68.8236 134.683C68.484 145.328 68.1314 157.188 67.7917 170.25C67.4521 182.96 66.9297 196.531 66.2504 210.965C65.9108 225.059 65.3883 239.662 64.7091 254.775C64.5736 257.667 64.4386 260.552 64.3039 263.431C63.7504 275.259 63.2021 286.977 62.6453 298.585H54.9126C49.4135 298.585 43.9144 298.075 38.4153 297.043C37.723 299.107 37.3834 301.85 37.3834 305.285C37.3834 308.028 37.723 311.647 38.4153 316.114C39.1076 320.241 40.4791 325.048 42.5429 330.547C44.1843 330.727 45.8257 330.911 47.4652 331.095C48.9178 331.257 50.3688 331.42 51.8169 331.579C55.2522 331.919 58.5177 332.271 61.6134 332.611C61.2738 335.014 61.104 337.418 61.104 339.821C61.104 342.225 60.9342 344.628 60.5946 347.031C59.5627 369.028 59.0533 387.066 59.0533 401.147C59.0533 415.228 59.2231 426.749 59.5627 435.683C60.255 444.957 61.2869 452.18 62.6584 457.327C64.0299 462.826 65.5843 467.972 67.2954 472.792C71.7626 473.472 76.9221 473.132 82.7608 471.76C87.5676 470.729 93.0667 469.004 99.2581 466.601C105.789 464.198 112.49 460.41 119.36 455.263C117.989 451.488 116.957 447.53 116.265 443.403C115.573 439.628 114.893 435.331 114.201 430.524C113.861 425.717 113.339 420.048 112.66 413.517C112.32 406.646 111.967 398.391 111.628 388.778C110.596 373.312 110.086 354.594 110.086 332.598C125.891 330.874 140.508 327.791 153.909 323.324C156.313 329.163 159.069 336.203 162.165 344.458C165.6 352.7 169.035 362.157 172.471 372.803C175.906 383.801 179.694 395.478 183.808 407.848C188.276 419.878 193.082 431.216 198.242 441.862C203.741 452.507 210.102 461.624 217.312 469.174C224.536 476.737 233.117 481.544 243.084 483.608C250.307 484.64 257.178 484.64 263.709 483.608C269.547 482.915 275.386 481.204 281.238 478.448C287.076 475.705 292.236 470.885 296.703 464.015C289.14 462.983 281.577 459.547 274.014 453.709V453.761C266.452 448.262 259.241 440.869 252.358 431.595C245.487 422.321 238.786 411.492 232.255 399.123C226.064 386.413 220.225 372.842 214.726 358.408C210.951 346.731 207.163 336.242 203.388 326.968C199.613 317.694 196.518 309.962 194.114 303.77C214.739 290.708 230.544 274.224 241.542 254.291C242.348 252.875 243.124 251.45 243.873 250.015C256.406 236.486 266.312 223.9 266.53 217.718C266.91 207.167 282.527 196.28 294.684 187.805C302.153 182.599 308.316 178.303 308.838 175.554C309.846 170.235 306.14 166.031 303.545 163.087C302.61 162.026 301.818 161.129 301.445 160.402H301.471ZM175.425 269.516C174.273 270.491 173.097 271.429 171.896 272.33H171.935C162.308 279.553 151.833 284.7 140.482 287.795C129.484 290.891 119.347 293.125 110.06 294.496C110.06 281.095 110.23 267.693 110.57 254.291C110.909 240.55 111.079 227.488 111.079 215.118C111.419 202.749 111.771 191.241 112.111 180.582C112.451 169.924 112.621 160.82 112.621 153.27C112.621 140.561 113.13 128.7 114.162 117.702C115.414 117.496 116.603 117.352 117.728 117.271C117.735 117.329 117.743 117.387 117.751 117.445C118.358 117.407 118.946 117.389 119.517 117.389H124.677C133.951 117.389 143.238 118.93 152.512 122.026C162.139 124.769 170.903 129.406 178.806 135.937C186.708 142.115 193.069 150.37 197.876 160.676H197.915C203.075 170.642 205.648 182.842 205.648 197.276C205.648 216.163 202.383 231.629 195.852 243.659C190.212 254.048 183.422 262.645 175.475 269.44C175.458 269.466 175.442 269.491 175.425 269.516Z" fill="#1F2937"/>
</svg>
