<svg width="532" height="203" viewBox="0 0 532 203" fill="none" xmlns="http://www.w3.org/2000/svg">
<path fill-rule="evenodd" clip-rule="evenodd" d="M445.694 0C463.818 0 479.084 1.9786 491.491 5.9358C491.027 6.53407 490.377 7.01379 489.554 7.27818L479.487 10.5147C475.2 11.8932 476.107 18.2068 480.61 18.3215L491.181 18.5907C494.512 18.6755 496.285 22.5579 494.168 25.131L487.449 33.2965C484.587 36.7742 488.764 41.5948 492.613 39.2571L501.652 33.7684C504.5 32.0387 508.091 34.3462 507.701 37.6556L506.463 48.1576C505.936 52.6304 512.056 54.4274 514.03 50.3796L518.667 40.8755C520.128 37.8805 524.396 37.8805 525.857 40.8755L530.493 50.3796C530.752 50.9111 531.083 51.3418 531.461 51.679C531.736 54.2395 531.873 56.8952 531.873 59.6461C531.873 101.895 499.627 123.02 435.135 123.02H423.894C423.894 137.706 430.933 145.048 445.013 145.048C453.188 145.048 463.861 142.337 477.032 136.915C490.203 131.267 497.129 128.442 497.81 128.442C502.125 128.442 507.802 134.881 514.842 147.76C521.882 160.638 525.401 170.127 525.401 176.227C525.401 185.038 516.318 191.703 498.151 196.222C479.984 200.741 462.158 203 444.672 203C427.414 203 412.88 201.644 401.072 198.933C389.49 196.222 379.953 192.833 372.459 188.766C365.192 184.474 358.72 179.277 353.043 173.177C347.593 167.077 343.505 161.316 340.78 155.893C338.055 150.245 335.898 144.032 334.308 137.254C332.037 127.313 330.902 117.033 330.902 106.414C330.902 65.2944 341.688 36.9399 363.262 21.3506C373.935 13.443 385.857 7.90765 399.028 4.7446C412.199 1.58152 427.754 0 445.694 0ZM310.314 87.7746V191.477C310.314 193.963 303.842 195.996 290.898 197.578C278.181 198.933 264.896 199.611 251.044 199.611C237.419 199.611 228.563 199.046 224.475 197.917C220.387 196.561 218.344 194.415 218.344 191.477V97.6027C218.344 65.2944 215.051 49.1403 208.465 49.1403C206.876 49.1403 205.286 49.8181 203.697 51.1736C202.107 52.5292 201.312 54.9015 201.312 58.2905V191.477C201.312 193.963 194.84 195.996 181.896 197.578C169.179 198.933 155.895 199.611 142.043 199.611C128.19 199.611 119.22 199.046 115.133 197.917C111.272 196.561 109.342 194.415 109.342 191.477V97.6027C109.342 72.5242 107.753 57.4997 104.573 52.5292C102.984 50.2699 100.94 49.1403 98.442 49.1403C94.1273 49.1403 91.97 52.1903 91.97 58.2905V191.477C91.97 193.963 85.4981 195.996 72.5541 197.578C59.6102 198.933 46.2121 199.611 32.3598 199.611C26.3987 199.611 21.3504 199.503 17.2149 199.287C15.5116 197.625 15.5592 194.612 17.7694 193.111L26.517 187.169C30.2425 184.638 27.5928 178.836 23.2406 179.995L13.0217 182.714C9.80148 183.572 7.00652 180.346 8.31321 177.281L12.4598 167.553C14.2258 163.41 8.85982 159.961 5.82478 163.289L0 169.675V24.4007C0 19.6561 6.47197 14.9115 19.4159 10.167C32.5869 5.4224 46.4392 3.05011 60.9727 3.05011C75.5062 3.05011 83.6814 7.22985 85.498 15.5893L88.5637 30.5009H90.9481C97.5336 17.6227 108.434 8.47248 123.649 3.05011C130.007 1.01669 138.182 0 148.174 0C168.158 0 182.691 10.167 191.775 30.5009C194.727 23.7229 202.107 16.9449 213.915 10.167C225.724 3.38901 238.781 0 253.088 0C275.569 0 290.671 7.00392 298.392 21.0117C306.34 34.7936 310.314 57.0479 310.314 87.7746ZM423.212 73.5409V95.9082C429.798 95.9082 435.135 93.31 439.222 88.1135C443.537 82.9171 445.694 76.591 445.694 69.1352C445.694 55.5793 442.174 48.8014 435.135 48.8014C427.186 48.8014 423.212 57.0479 423.212 73.5409Z" fill="#6B7280"/>
</svg>
