<svg width="195" height="94" viewBox="0 0 195 94" fill="none" xmlns="http://www.w3.org/2000/svg">
<path d="M56.272 24.5392H85.7123V26.8568H58.9714V44.298H84.1174V46.6156H58.9714V65.7645H86.0188V68.0821H56.272V24.5392ZM88.3493 24.5392H91.4777L105.339 43.688L119.507 24.5392L138.778 0.216187L107.118 45.7007L123.432 68.0821H120.181L105.339 47.7133L90.4356 68.0821H87.2458L103.683 45.7007L88.3503 24.5392H88.3493ZM124.598 26.8568V24.5392H158.147V26.8568H142.691V68.081H139.992V26.8568H124.599H124.598ZM19.4419 24.5392H22.8155L69.3312 93.4757L50.1081 68.0821L22.2628 27.8323L22.1402 68.0821H19.4419V24.5392ZM157.876 65.0647C157.323 65.0647 156.91 64.6417 156.91 64.0954C156.91 63.5482 157.323 63.1252 157.875 63.1252C158.433 63.1252 158.84 63.5482 158.84 64.0954C158.84 64.6417 158.433 65.0647 157.875 65.0647H157.876ZM160.527 62.5131H161.972C161.992 63.2881 162.563 63.8082 163.403 63.8082C164.341 63.8082 164.873 63.2494 164.873 62.2008V55.5623H166.343V62.2071C166.343 64.0954 165.241 65.1827 163.415 65.1827C161.703 65.1827 160.528 64.1278 160.528 62.5131H160.527ZM168.265 62.4296H169.723C169.848 63.3205 170.727 63.8866 171.994 63.8866C173.175 63.8866 174.041 63.2808 174.041 62.4484C174.041 61.7329 173.491 61.3026 172.236 61.0102L171.016 60.7177C169.303 60.3208 168.521 59.4999 168.521 58.1202C168.521 56.447 169.899 55.3336 171.967 55.3336C173.89 55.3336 175.296 56.447 175.381 58.0283H173.95C173.812 57.1635 173.051 56.6224 171.948 56.6224C170.785 56.6224 170.011 57.176 170.011 58.022C170.011 58.6925 170.51 59.0769 171.745 59.3631L172.788 59.6169C174.731 60.066 175.532 60.8472 175.532 62.2593C175.532 64.0558 174.126 65.1827 171.882 65.1827C169.782 65.1827 168.37 64.108 168.265 62.4285V62.4296Z" fill="#6B7280"/>
</svg>
