<svg width="94" height="94" viewBox="0 0 94 94" fill="none" xmlns="http://www.w3.org/2000/svg">
<path d="M47 93.2656C45.7699 93.2656 44.5215 92.9351 43.4383 92.3109L32.1105 85.6097C30.4215 84.6551 31.2477 84.3246 31.7984 84.141C34.0566 83.3515 34.5156 83.1863 36.9207 81.8094C37.1777 81.6625 37.5082 81.7176 37.7652 81.8828L46.4676 87.0418C46.7797 87.2254 47.2203 87.2254 47.5141 87.0418L81.4238 67.4707C81.7359 67.2871 81.9379 66.9199 81.9379 66.5527V27.4105C81.9379 27.025 81.7359 26.6761 81.4055 26.4742L47.5141 6.92146C47.2019 6.73787 46.7797 6.73787 46.4676 6.92146L12.5945 26.4926C12.2641 26.6761 12.0621 27.0433 12.0621 27.4289V66.5527C12.0621 66.9199 12.2641 67.2871 12.5945 67.4523L21.8844 72.8133C26.9332 75.3285 30.0176 72.3726 30.0176 69.3801V30.7519C30.0176 30.2011 30.4582 29.7789 31.009 29.7789H35.3051C35.8375 29.7789 36.2965 30.2011 36.2965 30.7519V69.3984C36.2965 76.1179 32.6246 79.9734 26.2539 79.9734C24.2894 79.9734 22.7473 79.9734 18.4512 77.8437L9.56523 72.7215C7.3621 71.4547 6.00351 69.0863 6.00351 66.5344V27.4105C6.00351 24.8769 7.3621 22.4902 9.56523 21.2234L43.4383 1.65232C45.5863 0.440601 48.432 0.440601 50.5617 1.65232L84.4715 21.2418C86.6746 22.5086 88.0332 24.8769 88.0332 27.4289V66.5527C88.0332 69.0863 86.6746 71.4547 84.4715 72.7398L50.5617 92.3109C49.4785 92.9351 48.2484 93.2656 47 93.2656ZM74.3738 54.6926C74.3738 47.3672 69.4168 45.4211 59.007 44.0441C48.4687 42.6488 47.4039 41.9328 47.4039 39.4726C47.4039 37.4347 48.3035 34.7176 56.1062 34.7176C63.0644 34.7176 65.6348 36.223 66.6996 40.923C66.7914 41.3636 67.1953 41.6941 67.6543 41.6941H72.0605C72.3359 41.6941 72.593 41.584 72.7766 41.382C72.9601 41.1801 73.0519 40.9047 73.0336 40.6293C72.3543 32.5328 66.975 28.7691 56.1062 28.7691C46.4309 28.7691 40.666 32.8449 40.666 39.6929C40.666 47.1101 46.4125 49.1664 55.684 50.0844C66.7914 51.1676 67.6543 52.8015 67.6543 54.9863C67.6543 58.7683 64.6066 60.384 57.4648 60.384C48.4871 60.384 46.5227 58.1258 45.8617 53.6644C45.7883 53.1871 45.3844 52.8383 44.8887 52.8383H40.5008C39.95 52.8383 39.5277 53.2789 39.5277 53.8113C39.5277 59.5211 42.6305 66.3324 57.4832 66.3324C68.2051 66.314 74.3738 62.073 74.3738 54.6926Z" fill="#6B7280"/>
</svg>
