<svg width="94" height="94" viewBox="0 0 94 94" fill="none" xmlns="http://www.w3.org/2000/svg">
<path d="M76.7789 32.5328C75.7875 32.2024 74.7961 31.8903 73.8047 31.5965C73.9699 30.9172 74.1168 30.2379 74.2637 29.5586C76.5219 18.6164 75.0348 9.82229 70.0227 6.92151C65.1941 4.14924 57.318 7.03166 49.35 13.9715C48.5605 14.6508 47.7895 15.3668 47.0551 16.0828C46.5594 15.6055 46.0453 15.1281 45.5312 14.6692C37.1777 7.25198 28.8059 4.13088 23.7938 7.05002C18.9836 9.84065 17.5516 18.1207 19.5711 28.4754C19.773 29.5035 19.9934 30.5133 20.2504 31.5414C19.0754 31.8719 17.9187 32.2391 16.8355 32.6246C7.03164 36.0211 0 41.3821 0 46.9266C0 52.6547 7.49063 58.4012 17.6801 61.8895C18.5063 62.1649 19.3324 62.4403 20.177 62.6789C19.9016 63.7805 19.6629 64.8637 19.4426 65.9836C17.5148 76.1731 19.0203 84.2512 23.8305 87.0235C28.7875 89.8875 37.1227 86.95 45.2375 79.8449C45.8801 79.2758 46.5227 78.6883 47.1652 78.0641C47.973 78.8535 48.8176 79.6063 49.6621 80.3406C57.5199 87.0969 65.2859 89.8324 70.0777 87.0602C75.0348 84.1961 76.6504 75.5121 74.5574 64.9371C74.3922 64.1293 74.2086 63.3031 74.0066 62.4586C74.5941 62.2934 75.1633 62.1098 75.7324 61.9262C86.3258 58.4195 94 52.7465 94 46.9266C94 41.3637 86.7664 35.966 76.7789 32.5328ZM51.9387 16.9457C58.7684 10.9973 65.1391 8.66565 68.0398 10.3364C71.1426 12.1172 72.3359 19.3141 70.3898 28.7692C70.2613 29.3934 70.1328 29.9992 69.9676 30.6051C65.8918 29.6871 61.7609 29.0262 57.6117 28.659C55.225 25.2442 52.618 21.9762 49.7906 18.9102C50.5066 18.2309 51.2043 17.5883 51.9387 16.9457ZM30.6969 56.4551C31.6332 58.0524 32.5879 59.6496 33.5977 61.2102C30.7336 60.8981 27.8879 60.4391 25.0789 59.8332C25.8867 57.1895 26.8965 54.4539 28.0715 51.6633C28.916 53.2789 29.7789 54.8762 30.6969 56.4551ZM25.134 34.3688C27.7777 33.7813 30.5867 33.3039 33.5059 32.9367C32.5328 34.4606 31.5781 36.0211 30.6785 37.6C29.7789 39.1606 28.8977 40.7578 28.0715 42.3735C26.9148 39.6379 25.9418 36.9574 25.134 34.3688ZM30.1645 47.0184C31.3762 44.4848 32.698 42.0063 34.0934 39.5645C35.4887 37.1227 36.9941 34.7543 38.573 32.4227C41.327 32.2207 44.1359 32.1106 47 32.1106C49.8641 32.1106 52.6914 32.2207 55.427 32.4227C56.9875 34.736 58.4746 37.1043 59.8883 39.5278C61.302 41.9512 62.6238 44.4297 63.8723 46.9449C62.6422 49.4785 61.3203 51.9754 59.9066 54.4356C58.5113 56.8774 57.0242 59.2457 55.4637 61.5957C52.7281 61.7977 49.8824 61.8895 47 61.8895C44.1176 61.8895 41.327 61.7977 38.6281 61.6324C37.0309 59.3008 35.5254 56.9141 34.1117 54.4723C32.698 52.0305 31.3945 49.552 30.1645 47.0184ZM63.3215 56.4184C64.2578 54.8027 65.1391 53.1688 66.002 51.5164C67.177 54.1785 68.2051 56.8774 69.1047 59.6496C66.259 60.2922 63.3766 60.7879 60.4758 61.1184C61.4672 59.5762 62.4035 57.9973 63.3215 56.4184ZM65.9652 42.3735C65.1023 40.7578 64.2211 39.1422 63.3031 37.5633C62.4035 36.0028 61.4672 34.4606 60.4941 32.9367C63.45 33.3039 66.2773 33.7996 68.9211 34.4055C68.0766 37.1227 67.0852 39.7664 65.9652 42.3735ZM47.0367 21.7192C48.9645 23.8121 50.782 26.0153 52.4711 28.2918C48.8359 28.1266 45.1824 28.1266 41.5473 28.2918C43.3465 25.9235 45.2008 23.7203 47.0367 21.7192ZM25.7398 10.4649C28.8242 8.66565 35.6723 11.236 42.8875 17.625C43.3465 18.0289 43.8055 18.4696 44.2828 18.9102C41.4371 21.9762 38.8117 25.2442 36.4066 28.659C32.2574 29.0262 28.1449 29.6688 24.0691 30.5684C23.8305 29.6321 23.6285 28.6774 23.4266 27.7227C21.7008 18.8367 22.8391 12.1356 25.7398 10.4649ZM21.2418 58.8602C20.4707 58.6399 19.718 58.4012 18.9652 58.1442C15.0547 56.9141 10.6117 54.968 7.39883 52.416C5.54453 51.1309 4.29609 49.1481 3.94727 46.9266C3.94727 43.5668 9.74883 39.2707 18.1207 36.3516C19.1672 35.9844 20.232 35.6539 21.2969 35.3418C22.5453 39.3258 24.0508 43.2363 25.7949 47.0184C24.0324 50.8555 22.5086 54.8211 21.2418 58.8602ZM42.6488 76.8524C39.6195 79.6246 36.1129 81.8278 32.2941 83.3332C30.2562 84.3063 27.9063 84.3981 25.8133 83.5719C22.8941 81.8828 21.6824 75.402 23.3348 66.6813C23.5367 65.6531 23.757 64.625 24.0141 63.6153C28.1266 64.4965 32.2758 65.1024 36.4801 65.4145C38.9035 68.8477 41.5656 72.134 44.4113 75.2184C43.8238 75.7875 43.2363 76.3383 42.6488 76.8524ZM47.1469 72.391C45.2742 70.3715 43.4016 68.1317 41.584 65.7266C43.3465 65.8 45.1641 65.8367 47 65.8367C48.891 65.8367 50.7453 65.8 52.5812 65.7082C50.8922 68.0399 49.0746 70.2613 47.1469 72.391ZM71.1426 77.8988C70.9773 80.1387 69.8758 82.2317 68.1133 83.6453C65.1941 85.3344 58.9703 83.1313 52.2508 77.3664C51.4797 76.7055 50.7086 75.9895 49.9191 75.2551C52.7281 72.1524 55.3168 68.866 57.6668 65.4145C61.8711 65.0656 66.057 64.4231 70.1879 63.4867C70.3715 64.2395 70.5367 64.9922 70.6836 65.7266C71.5832 69.6922 71.7301 73.8231 71.1426 77.8988ZM74.484 58.1625C73.9699 58.3278 73.4559 58.493 72.9234 58.6399C71.6383 54.6375 70.0594 50.727 68.2418 46.9266C70.0043 43.1813 71.4914 39.3258 72.7398 35.3785C73.6945 35.6539 74.6125 35.9477 75.4938 36.2414C84.0492 39.1789 90.0527 43.5485 90.0527 46.8899C90.0527 50.4883 83.6453 55.1332 74.484 58.1625ZM47 55.4086C51.6449 55.4086 55.4086 51.6449 55.4086 47C55.4086 42.3551 51.6449 38.5914 47 38.5914C42.3551 38.5914 38.5914 42.3551 38.5914 47C38.5914 51.6449 42.3551 55.4086 47 55.4086Z" fill="#6B7280"/>
</svg>
