<svg width="70" height="80" viewBox="0 0 70 80" fill="none" xmlns="http://www.w3.org/2000/svg">
<g clip-path="url(#clip0_521_42)">
<path d="M64.8649 10.6801C57.2361 0.100703 42.1687 -3.03509 31.2751 3.68995L12.1468 15.5053C9.56138 17.0804 7.34366 19.1609 5.63547 21.6139C3.92727 24.0668 2.76622 26.8382 2.22655 29.7508C1.31414 34.6561 2.11641 39.7161 4.50636 44.1298C2.86845 46.5369 1.75127 49.2408 1.22235 52.078C0.677487 55.049 0.750306 58.0954 1.43654 61.0387C2.12277 63.982 3.40859 66.7629 5.21862 69.2183C12.8473 79.7991 27.9155 82.9357 38.8077 76.2085L57.9403 64.3931C60.5251 62.8178 62.7421 60.7371 64.4496 58.2842C66.157 55.8312 67.3173 53.0599 67.8562 50.1477C68.7701 45.2428 67.9699 40.1826 65.5822 35.7679C67.2191 33.3608 68.3355 30.6572 68.8641 27.8204C69.4096 24.8495 69.3372 21.803 68.6511 18.8596C67.965 15.9163 66.6789 13.1354 64.8685 10.6801" fill="#6B7280"/>
<path d="M29.4062 70.2141C26.3953 70.9724 23.2168 70.8172 20.2998 69.7695C17.3828 68.7218 14.8679 66.8321 13.0947 64.3554C12.0063 62.879 11.2332 61.207 10.8205 59.4373C10.4079 57.6676 10.3641 55.8359 10.6916 54.0496C10.8025 53.4632 10.9552 52.8849 11.1486 52.319L11.5088 51.2528L12.4895 51.9501C14.7524 53.5622 17.2827 54.7881 19.9715 55.5749L20.6823 55.7838L20.617 56.4718C20.5307 57.4495 20.8043 58.4251 21.3894 59.226C21.9233 59.9726 22.681 60.5423 23.56 60.8582C24.4389 61.1741 25.3968 61.2208 26.3041 60.9922C26.7191 60.8852 27.1149 60.7174 27.4777 60.4946L46.6096 48.6778C47.0779 48.3922 47.4795 48.0153 47.7891 47.5709C48.0986 47.1266 48.3093 46.6247 48.4075 46.0971C48.5056 45.5586 48.4921 45.0065 48.3677 44.4732C48.2432 43.9398 48.0104 43.4357 47.6828 42.9905C47.1488 42.2439 46.3911 41.6741 45.5123 41.358C44.6334 41.0419 43.6756 40.9947 42.7681 41.2228C42.3531 41.3299 41.9573 41.4976 41.5945 41.7204L34.2937 46.23C33.0922 46.9696 31.7812 47.5271 30.406 47.8832C27.3951 48.6416 24.2165 48.4865 21.2995 47.4388C18.3825 46.3911 15.8676 44.5013 14.0945 42.0246C13.0058 40.5483 12.2324 38.8763 11.8197 37.1066C11.4069 35.3369 11.363 33.5051 11.6907 31.7188C12.0158 29.9674 12.7146 28.3011 13.7424 26.8263C14.7702 25.3516 16.1043 24.1009 17.6594 23.1543L36.7935 11.3397C37.9947 10.599 39.3058 10.0408 40.6812 9.68434C43.6921 8.92602 46.8706 9.08118 49.7876 10.1289C52.7046 11.1766 55.2195 13.0663 56.9927 15.543C58.0812 17.0193 58.8545 18.6913 59.2672 20.461C59.68 22.2307 59.724 24.0624 59.3965 25.8488C59.2847 26.4351 59.1318 27.0133 58.9388 27.5794L58.5786 28.6455L57.5986 27.9497C55.3359 26.3374 52.8055 25.1115 50.1166 24.3249L49.4051 24.116L49.4711 23.428C49.5573 22.4498 49.284 21.4736 48.6995 20.6717C48.1655 19.9252 47.4078 19.3555 46.5288 19.0396C45.6499 18.7237 44.6921 18.6769 43.7848 18.9055C43.3697 19.0125 42.9739 19.1802 42.6112 19.403L23.4741 31.2206C23.006 31.5059 22.6044 31.8827 22.2951 32.327C21.9858 32.7712 21.7755 33.2731 21.6777 33.8006C21.5791 34.3391 21.5923 34.8913 21.7164 35.4248C21.8406 35.9583 22.0733 36.4625 22.401 36.9079C22.9351 37.6544 23.6927 38.2242 24.5715 38.5402C25.4504 38.8563 26.4082 38.9036 27.3156 38.6755C27.7306 38.5683 28.1263 38.4006 28.4892 38.178L35.7893 33.6705C36.9903 32.9296 38.3014 32.3715 39.677 32.0159C42.6878 31.2575 45.8662 31.4126 48.7831 32.4604C51.7 33.5081 54.2147 35.3979 55.9878 37.8745C57.0764 39.3508 57.8498 41.0228 58.2626 42.7925C58.6754 44.5622 58.7192 46.394 58.3916 48.1803C58.0671 49.9317 57.3691 51.5982 56.3423 53.0733C55.3154 54.5485 53.9823 55.7999 52.428 56.7476L33.2939 68.5587C32.0927 69.2995 30.7817 69.8577 29.4062 70.2141Z" fill="white"/>
</g>
<defs>
<clipPath id="clip0_521_42">
<rect width="68.3826" height="79.6032" fill="white" transform="translate(0.850586 0.147583)"/>
</clipPath>
</defs>
</svg>
