<svg width="136" height="78" viewBox="0 0 136 78" fill="none" xmlns="http://www.w3.org/2000/svg">
<path fill-rule="evenodd" clip-rule="evenodd" d="M68.0013 0.37085C49.8664 0.37085 38.5351 8.89729 33.9993 25.9502C40.8003 17.4237 48.7338 14.2269 57.7999 16.3573C62.9726 17.5725 66.6715 21.102 70.7622 25.0098C77.4299 31.3731 85.1476 38.7373 102.001 38.7373C120.133 38.7373 131.467 30.2109 136 13.1605C129.202 21.6869 121.268 24.8837 112.202 22.7509C107.027 21.5357 103.328 18.0061 99.2371 14.1009C92.5694 7.73253 84.8544 0.37085 68.0013 0.37085ZM33.9993 38.7373C15.8671 38.7373 4.53307 47.2637 0 64.3166C6.80093 55.7902 14.7345 52.5934 23.7979 54.7237C28.9733 55.9389 32.6722 59.4685 36.7629 63.3762C43.4306 69.7395 51.1456 77.1037 68.0013 77.1037C86.1336 77.1037 97.4676 68.5798 102.001 51.527C95.1997 60.0534 87.2662 63.2502 78.2001 61.1198C73.0274 59.9021 69.3285 56.3725 65.2378 52.4673C58.5701 46.104 50.8524 38.7373 33.9993 38.7373Z" fill="#6B7280"/>
</svg>
